#!OML:ASF F:\VICON\USERDATA\INSTALL\rory3\rory3.ASF
:FULLY-SPECIFIED
:DEGREES
262
root -0.69794 15.8936 9.04928 0.825217 -0.53985 -1.40152
lowerback 12.0137 1.45514 -3.62037
upperback -4.70867 1.54638 1.77426
thorax -12.0889 1.10279 3.64753
lowerneck -10.1986 -6.02325 -3.89409
upperneck 19.487 -8.43055 3.83934
head 8.03573 -3.93953 1.05855
rclavicle 1.59525e-014 -2.98177e-016
rhumerus -30.1988 -1.0104 -83.1846
rradius 31.8381
rwrist -0.172771
rhand -10.309 17.8578
rfingers 7.12502
rthumb 15.6861 -11.5264
lclavicle 1.59525e-014 -2.98177e-016
lhumerus -40.7407 8.27182 82.7484
lradius 22.2193
lwrist -0.783938
lhand -4.04731 19.7677
lfingers 7.12502
lthumb 21.7085 48.5705
rfemur 25.7115 10.6331 29.3734
rtibia -2.8625e-014
rfoot -8.63237 -5.22852
rtoes -22.808
lfemur -33.0124 -19.4999 -14.2163
ltibia 29.2155
lfoot -6.67956 12.725
ltoes 34.5341
263
root -0.664679 15.8837 9.20529 0.77186 -0.38294 -0.982639
lowerback 12.0409 1.40914 -4.04838
upperback -4.75603 1.40042 1.68589
thorax -12.1579 1.0651 3.82649
lowerneck -10.1528 -6.01967 -3.85153
upperneck 19.6147 -8.40735 3.67659
head 8.0597 -3.94027 1.00101
rclavicle -1.63997e-014 -3.97569e-015
rhumerus -30.8087 -1.62808 -82.924
rradius 31.1808
rwrist 0.484118
rhand -9.77334 17.2915
rfingers 7.12502
rthumb 16.2019 -12.0515
lclavicle -1.63997e-014 -3.97569e-015
lhumerus -40.718 8.34023 82.7165
lradius 22.0472
lwrist -0.921271
lhand -4.21037 19.6265
lfingers 7.12502
lthumb 21.5519 48.4473
rfemur 26.3253 10.2398 28.8044
rtibia 4.13472e-014
rfoot -7.91444 -5.1206
rtoes -23.8439
lfemur -32.5184 -18.4907 -15.3565
ltibia 29.6313
lfoot -5.86855 11.9644
ltoes 34.2186
264
root -0.630856 15.8653 9.36191 0.737467 -0.115767 -0.567107
lowerback 12.045 1.35632 -4.38465
upperback -4.82324 1.25544 1.54797
thorax -12.2297 1.01894 3.89848
lowerneck -9.99489 -6.039 -3.89826
upperneck 19.6805 -8.43599 3.68442
head 8.0568 -3.95855 1.01231
rclavicle 5.2181e-015 -1.19271e-015
rhumerus -31.5148 -2.41529 -82.6144
rradius 30.4601
rwrist 1.05215
rhand -8.36618 15.0076
rfingers 7.12502
rthumb 17.5565 -14.2197
lclavicle 5.2181e-015 -1.19271e-015
lhumerus -40.635 8.39653 82.6177
lradius 21.7663
lwrist -1.16985
lhand -4.15471 19.8613
lfingers 7.12502
lthumb 21.6054 48.676
rfemur 24.2246 9.71531 28.2761
rtibia 4.97349
rfoot -8.84615 -4.91858
rtoes -25.846
lfemur -32.2079 -17.5767 -16.4351
ltibia 30.1345
lfoot -5.33754 11.1414
ltoes 35.225
265
root -0.592701 15.8564 9.52267 0.66988 0.0893569 -0.0384927
lowerback 11.9984 1.28969 -4.78697
upperback -4.82655 1.08207 1.40029
thorax -12.1955 0.960271 4.00359
lowerneck -9.78453 -6.10576 -4.06609
upperneck 19.5026 -8.52808 3.83203
head 7.97799 -4.00651 1.08632
rclavicle -1.24986e-014 -6.26172e-015
rhumerus -32.1404 -2.99777 -82.3444
rradius 29.7502
rwrist 1.49463
rhand -7.50151 13.3249
rfingers 7.12502
rthumb 18.3884 -15.8259
lclavicle -1.24986e-014 -6.26172e-015
lhumerus -40.4702 8.62893 82.4793
lradius 21.3939
lwrist -1.39051
lhand -4.23983 19.7495
lfingers 7.12502
lthumb 21.5236 48.5735
rfemur 21.6156 9.26758 27.5389
rtibia 10.8294
rfoot -9.94167 -4.57067
rtoes -26.8168
lfemur -31.8847 -16.8281 -17.592
ltibia 30.6674
lfoot -4.74988 10.5606
ltoes 35.1471
266
root -0.55512 15.8486 9.68155 0.624539 0.172284 0.2962
lowerback 11.9579 1.27342 -4.9935
upperback -4.84855 1.01245 1.27547
thorax -12.1916 0.93754 3.99888
lowerneck -9.77436 -6.11418 -4.00465
upperneck 19.4098 -8.54901 3.84288
head 7.94384 -4.01246 1.07911
rclavicle 1.27719e-014 -2.68359e-015
rhumerus -32.8674 -3.69543 -82.1041
rradius 29.251
rwrist 1.75802
rhand -8.11449 13.3196
rfingers 7.12502
rthumb 17.7987 -15.8859
lclavicle 1.27719e-014 -2.68359e-015
lhumerus -40.26 8.73694 82.3489
lradius 20.9301
lwrist -1.55823
lhand -4.45438 19.3373
lfingers 7.12502
lthumb 21.3176 48.1848
rfemur 19.8295 8.46444 26.7434
rtibia 14.9396
rfoot -10.057 -3.58977
rtoes -26.3196
lfemur -31.5567 -16.061 -18.4763
ltibia 31.2148
lfoot -4.22296 9.85501
ltoes 35.7053
267
root -0.518006 15.8414 9.83786 0.62558 0.308355 0.575065
lowerback 11.9134 1.27366 -5.12902
upperback -4.86577 0.97806 1.15432
thorax -12.1817 0.925794 3.94984
lowerneck -10.0251 -6.08122 -3.98226
upperneck 19.549 -8.5096 3.85935
head 8.03341 -3.98429 1.07552
rclavicle -4.70871e-015 1.53064e-014
rhumerus -33.5978 -4.63874 -81.7346
rradius 28.6312
rwrist 1.89135
rhand -9.38889 15.8298
rfingers 7.12502
rthumb 16.5721 -13.4826
lclavicle -4.70871e-015 1.53064e-014
lhumerus -39.9115 8.63126 82.3408
lradius 20.461
lwrist -1.7765
lhand -4.58016 19.2492
lfingers 7.12502
lthumb 21.1968 48.1103
rfemur 18.1081 7.42166 25.9046
rtibia 18.7198
rfoot -9.54638 -2.67175
rtoes -28.4766
lfemur -31.2353 -15.1866 -19.3163
ltibia 31.7166
lfoot -3.70063 8.94404
ltoes 36.9102
268
root -0.476787 15.8419 9.99709 0.583189 0.513629 0.689688
lowerback 11.7487 1.20662 -5.0342
upperback -4.7975 0.910001 1.12196
thorax -11.9921 0.877781 3.87583
lowerneck -10.1675 -6.09651 -4.26615
upperneck 19.6639 -8.51384 4.01992
head 8.1182 -3.98748 1.16746
rclavicle 2.72211e-014 -8.15017e-015
rhumerus -34.0468 -5.45183 -81.2732
rradius 27.573
rwrist 2.1003
rhand -10.6747 18.1579
rfingers 7.12502
rthumb 15.3339 -11.2535
lclavicle 2.72211e-014 -8.15017e-015
lhumerus -39.5245 8.90534 82.2689
lradius 19.97
lwrist -2.27188
lhand -4.74425 19.0294
lfingers 7.12502
lthumb 21.0391 47.9081
rfemur 16.4564 6.1776 25.1432
rtibia 22.2564
rfoot -8.39692 -1.79545
rtoes -29.612
lfemur -30.858 -14.4683 -20.0093
ltibia 32.1896
lfoot -3.1697 8.1027
ltoes 36.8066
